<svg height="511pt" viewBox="0 0 511 511.99945" width="511pt" xmlns="http://www.w3.org/2000/svg"><path d="m477.804688 199.660156c5.898437-14.460937 7.199218-26.003906 7.328124-27.269531.644532-6.390625-2.042968-12.660156-7.117187-16.597656-1.933594-1.496094-47.917969-36.414063-100.601563-14.25-2.765624 1.160156-5.402343 2.429687-7.925781 3.789062 1.566407-2.90625 3.023438-5.96875 4.34375-9.203125 21.941407-53.800781-13.980469-98.757812-15.515625-100.644531-4.0625-4.972656-10.398437-7.503906-16.769531-6.699219-2.421875.308594-59.628906 8.132813-81.210937 61.058594-1.140626 2.796875-2.089844 5.574219-2.914063 8.339844-.949219-3.183594-2.082031-6.394532-3.445313-9.636719-22.53125-53.558594-79.714843-59.945313-82.136718-60.191406-6.386719-.648438-12.660156 2.039062-16.59375 7.113281-.761719.984375-7.601563 10-13.371094 24.152344-7.421875 18.191406-13.597656 46.226562-.882812 76.449218 1.167968 2.78125 2.464843 5.410157 3.832031 7.945313-2.917969-1.574219-5.996094-3.039063-9.246094-4.363281-53.800781-21.941406-98.753906 13.980468-100.640625 15.519531-2.453125 2-4.3125 4.554687-5.46875 7.394531-1.191406 2.917969-1.640625 6.140625-1.230469 9.371094.304688 2.421875 8.132813 59.628906 61.054688 81.210938 2.792969 1.136718 5.566406 2.085937 8.328125 2.910156-3.175782.949218-6.386719 2.089844-9.625 3.453125-30.417969 12.796875-45.539063 36.898437-52.863282 54.863281-5.898437 14.460938-7.195312 26.003906-7.328124 27.269531-.644532 6.390625 2.042968 12.660157 7.117187 16.59375 1.933594 1.496094 47.917969 36.417969 100.601563 14.253907 2.765624-1.164063 5.402343-2.433594 7.921874-3.792969-1.566406 2.90625-3.019531 5.972656-4.339843 9.207031-21.941407 53.800781 13.976562 98.753906 15.519531 100.640625 4.058594 4.976563 10.394531 7.507813 16.761719 6.699219 2.425781-.304688 59.632812-8.128906 81.214843-61.054688 1.140626-2.796875 2.085938-5.578125 2.910157-8.339844.953125 3.179688 2.085937 6.394532 3.449219 9.636719 22.53125 53.554688 79.714843 59.945313 82.136718 60.191407 6.386719.644531 12.65625-2.042969 16.59375-7.117188.757813-.980469 7.597656-10 13.371094-24.148438 7.417969-18.195312 13.59375-46.226562.882812-76.453124-1.171874-2.777344-2.464843-5.410157-3.832031-7.941407 2.917969 1.570313 5.996094 3.035157 9.246094 4.359375 53.800781 21.941406 98.753906-13.976562 100.640625-15.515625 2.453125-2.003906 4.3125-4.558593 5.46875-7.394531 1.191406-2.921875 1.640625-6.144531 1.230469-9.371094-.304688-2.425781-8.132813-59.632812-61.054688-81.214844-2.792969-1.136718-5.570312-2.082031-8.328125-2.90625 3.175782-.953124 6.386719-2.09375 9.621094-3.453124 30.421875-12.796876 45.539062-36.898438 52.867188-54.863282zm0 0" fill="#e31e7f"/><path d="m499.929688 249.617188c-1.199219-2.128907-30.046876-52.144532-87.203126-52.144532-3.019531 0-5.953124.171875-8.824218.453125 2.585937-2.082031 5.136718-4.347656 7.621094-6.835937 41.085937-41.082032 25.40625-96.445313 24.71875-98.785156-1.8125-6.15625-6.667969-10.949219-12.851563-12.675782-1.199219-.332031-12.128906-3.261718-27.414063-3.261718-19.648437 0-47.9375 4.867187-71.121093 28.054687-2.132813 2.128906-4.082031 4.320313-5.910157 6.546875.355469-3.296875.546876-6.699219.546876-10.210938 0-58.101562-50.234376-86.164062-52.371094-87.328124-2.78125-1.515626-5.847656-2.273438-8.914063-2.273438-3.152343 0-6.304687.800781-9.140625 2.398438-2.128906 1.203124-52.144531 30.050781-52.144531 87.203124 0 3.015626.171875 5.945313.453125 8.808594-2.082031-2.582031-4.351562-5.121094-6.832031-7.605468-23.335938-23.335938-51.363281-28.234376-70.765625-28.234376-15.613282 0-26.792969 3.15625-28.019532 3.515626-6.160156 1.8125-10.949218 6.671874-12.675781 12.855468-.65625 2.355469-15.625 58.117188 24.789063 98.535156 2.121094 2.121094 4.292968 4.082032 6.503906 5.902344-3.285156-.351562-6.671875-.542968-10.164062-.542968-58.101563 0-86.164063 50.234374-87.332032 52.375-3.074218 5.636718-3.023437 12.460937.128906 18.054687 1.199219 2.125 30.046876 52.144531 87.203126 52.144531 3.019531 0 5.953124-.175781 8.824218-.453125-2.585937 2.082031-5.136718 4.34375-7.625 6.832031-41.082031 41.085938-25.402344 96.445313-24.714844 98.785157 1.8125 6.15625 6.667969 10.949219 12.851563 12.675781 1.199219.332031 12.132813 3.261719 27.414063 3.261719 19.648437 0 47.9375-4.867188 71.121093-28.054688 2.132813-2.128906 4.082031-4.320312 5.910157-6.546875-.355469 3.296875-.546876 6.699219-.546876 10.210938 0 58.101562 50.234376 86.164062 52.371094 87.328125 2.78125 1.515625 5.847656 2.273437 8.914063 2.273437 3.152343 0 6.304687-.800781 9.140625-2.398437 2.128906-1.199219 52.144531-30.046875 52.144531-87.203125 0-3.015625-.171875-5.941406-.449219-8.808594 2.078125 2.582031 4.347656 5.125 6.828125 7.605469 23.335938 23.335937 51.363281 28.234375 70.765625 28.234375 15.617188 0 26.796875-3.15625 28.019532-3.515625 6.160156-1.8125 10.949218-6.667969 12.675781-12.855469.65625-2.351562 15.628906-58.117188-24.789063-98.535156-2.121094-2.121094-4.292968-4.082032-6.503906-5.90625 3.285156.355468 6.671875.546875 10.164062.546875 58.105469 0 86.167969-50.234375 87.332032-52.375 3.070312-5.636719 3.023437-12.460938-.128906-18.050781zm0 0" fill="#fd646f"/><path d="m356.035156 253.070312c0 54.992188-44.578125 99.570313-99.566406 99.570313-54.992188 0-99.570312-44.578125-99.570312-99.570313 0-54.988281 44.578124-99.566406 99.570312-99.566406 54.988281 0 99.566406 44.578125 99.566406 99.566406zm0 0" fill="#ffe469"/><path d="m256.46875 153.503906c-7.5625 0-14.925781.847656-22.003906 2.441406 44.402344 10.019532 77.566406 49.695313 77.566406 97.125 0 47.429688-33.164062 87.109376-77.566406 97.125 7.078125 1.597657 14.441406 2.445313 22.003906 2.445313 54.988281 0 99.566406-44.578125 99.566406-99.570313 0-54.988281-44.578125-99.566406-99.566406-99.566406zm0 0" fill="#ffda30"/><path d="m509.203125 270.359375c4.375-8.023437 4.308594-17.566406-.175781-25.519531-.691406-1.230469-9.878906-17.1875-27.699219-31.832032 2.285156-4.214843 4.183594-8.316406 5.75-12.15625 6.214844-15.242187 7.6875-27.363281 7.921875-29.644531.917969-9.09375-2.84375-17.859375-10.0625-23.457031-1.085938-.84375-15.105469-11.5-36.367188-18.132812 2.199219-23.085938-2.84375-40.878907-3.242187-42.230469-2.574219-8.765625-9.367187-15.464844-18.171875-17.925781-2.140625-.597657-13.640625-3.574219-29.710938-3.574219-3.863281 0-8.039062.179687-12.433593.617187-6.855469-22.980468-18.898438-38.0625-19.8125-39.179687-5.777344-7.082031-14.628907-10.621094-23.699219-9.476563-1.367188.171875-18.808594 2.558594-38.527344 12.902344-14.765625-17.878906-30.910156-26.890625-32.144531-27.566406-7.894531-4.308594-17.691406-4.238282-25.523437.175781-1.230469.695313-17.199219 9.902344-31.847657 27.75-21.109375-11.421875-40.3125-13.570313-41.753906-13.71875-9.085937-.921875-17.851563 2.839844-23.453125 10.066406-1.359375 1.757813-8.457031 11.285157-14.523438 26.171875-1.273437 3.125-2.511718 6.523438-3.640624 10.152344-4.148438-.402344-8.089844-.5625-11.746094-.5625-16.464844 0-28.234375 3.210938-30.433594 3.859375-8.761719 2.578125-15.460938 9.375-17.917969 18.171875-2.585937 9.273438 11.84375 13.382812 14.453125 4.03125 1.054688-3.78125 3.933594-6.703125 7.699219-7.8125 1.132813-.332031 11.480469-3.25 26.199219-3.25 18.1875 0 44.4375 4.570312 66.203125 26.34375 2.234375 2.234375 4.378906 4.621094 6.367187 7.09375 4.5625 5.664062 14.011719 1.808594 13.308594-5.433594-.285156-2.914062-.421875-5.589844-.421875-8.179687 0-53.445313 46.878906-80.488281 48.875-81.613281 3.335937-1.882813 7.605469-1.910157 10.96875-.078126 2.003906 1.09375 49.015625 27.351563 49.015625 81.695313 0 3.164063-.171875 6.363281-.511719 9.515625-.777343 7.234375 8.632813 11.183594 13.25 5.566406 1.859375-2.257812 3.652344-4.246094 5.480469-6.078125 21.613281-21.621093 48.132812-26.160156 66.570312-26.160156 14.417969 0 24.578126 2.714844 25.679688 3.023437 3.785156 1.054688 6.703125 3.9375 7.8125 7.707032.644531 2.183594 15.320312 54.015625-23.085938 92.433594-2.207031 2.210937-4.597656 4.351562-7.101562 6.367187-5.671875 4.5625-1.808594 14.015625 5.429688 13.308594 2.910156-.28125 5.585937-.421875 8.191406-.421875 53.441406 0 80.460937 46.894531 81.585937 48.894531 1.929688 3.421875 1.957031 7.527344.074219 10.980469-1.089844 2-27.335938 49.027344-81.660156 49.027344-3.148438 0-6.335938-.171876-9.46875-.507813-7.230469-.777344-11.183594 8.621094-5.574219 13.246094 2.09375 1.726562 4.125 3.570312 6.039063 5.484375 37.773437 37.785156 23.746093 90.078125 23.128906 92.28125-1.054688 3.785156-3.9375 6.707031-7.699219 7.816406-1.132813.332031-11.492187 3.25-26.199219 3.25-18.191406 0-44.4375-4.570312-66.203125-26.34375-2.238281-2.238281-4.382812-4.625-6.363281-7.089844-4.5625-5.667968-14.015625-1.808594-13.308594 5.433594.28125 2.90625.417969 5.578125.417969 8.175781 0 53.433594-46.878906 80.488281-48.875 81.617188-3.335937 1.878906-7.605469 1.910156-10.96875.074219-2.003906-1.09375-49.011719-27.34375-49.011719-81.691407 0-3.167969.171875-6.371093.507813-9.523437.777343-7.230469-8.632813-11.183594-13.25-5.5625-1.855469 2.257812-3.652344 4.246094-5.484375 6.078125-21.609375 21.621093-48.125 26.160156-66.566406 26.160156-14.417969 0-24.574219-2.714844-25.679688-3.019531-3.78125-1.058594-6.703125-3.941406-7.8125-7.707032-.644531-2.1875-15.304688-54.035156 23.085938-92.4375 2.210937-2.210937 4.601562-4.355468 7.101562-6.367187 5.683594-4.574219 1.800781-13.984375-5.429688-13.308594-2.90625.28125-5.585937.421875-8.191406.421875-53.429687 0-80.460937-46.894531-81.585937-48.894531-1.929688-3.421875-1.957031-7.523437-.078125-10.972656 1.09375-2.003907 27.378906-49.035157 81.664062-49.035157 3.148438 0 6.335938.171876 9.472656.507813 7.230469.792969 11.175782-8.628906 5.570313-13.246094-2.089844-1.722656-4.121094-3.566406-6.039063-5.480469-14.605468-14.617187-23.191406-33.046874-25.515624-54.777343-.390626-3.6875-3.386719-6.445313-6.972657-6.679688-.417969-.027343-.847656-.027343-1.28125.015625-3.78125.40625-6.59375 3.554688-6.691406 7.25-23.023437 6.859375-38.125 18.945313-39.242187 19.855469-6.9375 5.660156-10.597657 14.820313-9.472657 23.703125.171875 1.371094 2.558594 18.820312 12.90625 38.550781-17.871093 14.769531-26.890625 30.910157-27.570312 32.152344-4.371094 8.023437-4.304688 17.5625.179687 25.523437.691406 1.226563 9.882813 17.179688 27.699219 31.828126-2.285156 4.210937-4.1875 8.3125-5.75 12.15625-6.210937 15.226562-7.6875 27.355468-7.921875 29.640624-.917969 9.089844 2.839844 17.859376 10.0625 23.460938 1.089844.84375 15.113281 11.496094 36.375 18.125-2.203125 23.085938 2.832031 40.882812 3.234375 42.242188 2.578125 8.761718 9.367187 15.460937 18.171875 17.921874 2.140625.597657 13.636719 3.570313 29.710938 3.570313 3.863281 0 8.035156-.179687 12.429687-.613281 6.855469 22.980468 18.90625 38.0625 19.816406 39.179687 5.777344 7.082031 14.632813 10.621094 23.699219 9.476563 1.367188-.175782 18.808594-2.554688 38.527344-12.902344 14.765625 17.878906 30.90625 26.890625 32.144531 27.566406 7.894531 4.308594 17.691406 4.238282 25.527344-.179687 1.226562-.691407 17.175781-9.886719 31.8125-27.710938 3.328125 1.808594 6.566406 3.359375 9.625 4.683594 8.839843 3.824219 14.886719-9.902344 5.960937-13.765625-2.160156-.933594-4.417968-2.003906-6.738281-3.210938 7.636719-12.214843 13.761719-27.234374 15.410156-45.097656 14.34375 12.328125 29.863281 18.925782 44.175781 22.246094-.8125 2.449219-1.679687 4.761719-2.558593 6.925781-5.445313 13.355469-11.792969 21.742188-12.496094 22.648438-2.40625 3.105469-6.171875 4.730469-10.078125 4.324219-9.660156-.964844-11.085938 13.953124-1.515625 14.925781 8.949219.90625 17.945313-2.957031 23.457031-10.0625 1.359375-1.757813 8.457032-11.285157 14.523438-26.171875 1.273437-3.125 2.511718-6.523438 3.640625-10.152344 4.144531.402344 8.085937.5625 11.742187.5625 16.457032 0 28.234375-3.214844 30.433594-3.859375 8.765625-2.578125 15.460938-9.375 17.917969-18.175781.378906-1.359375 5.160156-19.164063 2.902343-42.148438 23-6.855468 38.101563-18.921875 39.21875-19.835937 3.402344-2.773438 6.074219-6.386719 7.734376-10.453125 1.703124-4.183594 2.308593-8.761719 1.738281-13.246094-.171875-1.367188-2.554688-18.816406-12.898438-38.542969 17.875-14.769531 26.882813-30.921875 27.558594-32.160156zm-29.128906-100.667969c-.121094 1.175782-1.332031 11.871094-6.886719 25.496094-1.164062 2.851562-2.539062 5.867188-4.152344 8.96875-12.210937-7.636719-27.226562-13.765625-45.089844-15.414062 12.285157-14.289063 18.90625-29.773438 22.226563-44.238282 17.316406 5.773438 28.664063 14.394532 29.574219 15.101563 3.105468 2.410156 4.722656 6.179687 4.328125 10.085937zm-126.503907-132.886718c.765626.9375 10.609376 13.253906 16.597657 32.136718-13.9375 3.230469-28.945313 9.503906-42.8125 21.03125-1.417969-18.792968-7.679688-34.421875-15.550781-47 16.320312-8.167968 30.4375-10.097656 31.582031-10.242187 3.894531-.492188 7.703125 1.03125 10.183593 4.074219zm-183.382812-4.488282c1.207031.125 16.890625 1.875 34.480469 11.003906-7.648438 12.222657-13.785157 27.257813-15.4375 45.140626-14.34375-12.328126-29.863281-18.925782-44.175781-22.246094.8125-2.445313 1.675781-4.757813 2.558593-6.921875 5.449219-13.359375 11.792969-21.742188 12.496094-22.648438 2.40625-3.105469 6.175781-4.726562 10.078125-4.328125zm308.722656 316.328125c-.714844 1.75-1.863281 3.304688-3.324218 4.496094-.9375.765625-13.261719 10.625-32.152344 16.613281-3.234375-14.054687-9.519532-29.03125-20.996094-42.84375 18.785156-1.417968 34.410156-7.683594 46.984375-15.554687 8.164063 16.324219 10.089844 30.449219 10.238281 31.589843.242188 1.929688-.015625 3.898438-.75 5.699219zm-319.546875 126.550781c-.765625-.9375-10.613281-13.253906-16.601562-32.132812 13.941406-3.230469 28.953125-9.507812 42.820312-21.035156 1.417969 18.792968 7.679688 34.425781 15.550781 47.003906-16.320312 8.164062-30.441406 10.09375-31.582031 10.238281-3.894531.496094-7.703125-1.03125-10.1875-4.074219zm-126.5-132.882812c.121094-1.175781 1.335938-11.890625 6.886719-25.5 1.160156-2.851562 2.539062-5.871094 4.148438-8.96875 12.210937 7.636719 27.230468 13.765625 45.089843 15.414062-12.28125 14.285157-18.898437 29.769532-22.222656 44.234376-17.316406-5.769532-28.667969-14.390626-29.578125-15.097657-3.105469-2.40625-4.722656-6.179687-4.324219-10.082031zm1.160157-178.957031c.714843-1.75 1.863281-3.304688 3.328124-4.496094.9375-.769531 13.238282-10.617187 32.109376-16.609375 3.699218 16.121094 10.726562 30.46875 21.03125 42.84375-18.777344 1.417969-34.402344 7.683594-46.972657 15.5625-8.167969-16.332031-10.097656-30.457031-10.242187-31.601562-.246094-1.925782.015625-3.898438.746094-5.699219zm0 0"/><path d="m141.773438 134.015625c-2.9375 2.921875-2.949219 7.671875-.027344 10.609375l34.625 34.820312c-15.703125 17.324219-25.875 39.746094-27.714844 64.453126l-49.148438-.128907c-9.613281 0-9.75 14.976563-.039062 15.003907l49.109375.128906c1.542969 24.460937 11.253906 46.742187 26.429687 64.136718l-35.847656 35.675782c-6.734375 6.695312 3.695313 17.484375 10.582032 10.632812l35.878906-35.707031c17.253906 15.003906 39.289062 24.628906 63.480468 26.265625l-.136718 52.078125c-.023438 9.644531 14.980468 9.824219 15.003906.039063l.136719-52.132813c24.683593-1.734375 47.109375-11.792969 64.480469-27.378906l34.582031 34.773437c6.746093 6.785156 17.410156-3.769531 10.636719-10.578125l-34.769532-34.960937c14.425782-17.066406 23.671875-38.640625 25.289063-62.28125l49.101562.132812c9.613281 0 9.75-14.980468.039063-15.003906l-49.148438-.128906c-.484375-7.039063-1.648437-14-3.480468-20.769532-2.515626-9.300781-16.996094-5.390624-14.480469 3.917969 2.140625 7.90625 3.226562 16.117188 3.226562 24.398438 0 51.363281-41.769531 93.148437-93.117187 93.148437-51.339844 0-93.113282-41.785156-93.113282-93.148437s41.769532-93.148438 93.113282-93.148438c29.433594 0 57.457031 14.160157 74.964844 37.882813 5.71875 7.75 17.796874-1.148438 12.070312-8.910156-1.601562-2.167969-3.289062-4.261719-5.035156-6.292969l33.855468-33.691407c6.828126-6.792968-3.746093-17.4375-10.578124-10.632812l-33.835938 33.667969c-17.542969-15.402344-39.789062-24.890625-63.238281-26.699219l.121093-46.230469c.023438-9.640625-14.976562-9.824219-15.003906-.039062l-.121094 46.164062c-23.6875 1.476563-45.332031 10.617188-62.476562 24.964844l-34.808594-35c-2.917968-2.9375-7.664062-2.949219-10.605468-.03125zm0 0"/><path d="m322.203125 245.453125c-4.144531 0-7.5 3.355469-7.5 7.5 0 31.816406-25.875 57.703125-57.683594 57.703125-9.628906 0-9.644531 15.003906 0 15.003906 40.078125 0 72.683594-32.617187 72.683594-72.707031 0-4.144531-3.355469-7.5-7.5-7.5zm0 0"/></svg>