<?xml version="1.0"?>
<svg xmlns="http://www.w3.org/2000/svg" height="512px" viewBox="-21 -21 681 681.33386" width="512px"><g><path d="m634.722656 337.289062c5.457032-10.007812 5.375-21.914062-.21875-31.835937-.863281-1.535156-12.324218-21.441406-34.558594-39.714844 2.851563-5.257812 5.222657-10.375 7.175782-15.164062 7.753906-19.015625 9.589844-34.136719 9.882812-36.984375 1.144532-11.34375-3.546875-22.277344-12.554687-29.261719-1.355469-1.054687-18.84375-14.347656-45.371094-22.621094 2.746094-28.800781-3.546875-51-4.042969-52.6875-3.210937-10.933593-11.6875-19.292969-22.671875-22.363281-2.667969-.746094-17.015625-4.457031-37.066406-4.457031-4.816406 0-10.027344.222656-15.511719.769531-8.550781-28.671875-23.574218-47.484375-24.714844-48.878906-7.207031-8.835938-18.25-13.25-29.566406-11.824219-1.707031.214844-23.464844 3.191406-48.066406 16.097656-18.421875-22.304687-38.5625-33.546875-40.101562-34.390625-9.847657-5.375-22.070313-5.289062-31.84375.21875-1.535157.867188-21.457032 12.355469-39.730469 34.621094-26.335938-14.25-50.292969-16.929688-52.089844-17.117188-11.335937-1.148437-22.269531 3.542969-29.257813 12.558594-1.699218 2.195313-10.550781 14.078125-18.121093 32.652344-1.589844 3.898438-3.132813 8.136719-4.542969 12.664062-5.175781-.5-10.089844-.699218-14.652344-.699218-20.539062 0-35.222656 4.003906-37.96875 4.8125-10.929687 3.21875-19.289062 11.695312-22.351562 22.671875-3.226563 11.570312 14.773437 16.695312 18.03125 5.027343 1.3125-4.714843 4.90625-8.363281 9.605468-9.746093 1.410157-.414063 14.320313-4.054688 32.683594-4.054688 22.691406 0 55.4375 5.703125 82.59375 32.867188 2.785156 2.785156 5.460938 5.765625 7.941406 8.847656 5.691407 7.066406 17.480469 2.257813 16.605469-6.777344-.355469-3.636719-.527343-6.972656-.527343-10.203125 0-66.679687 58.484374-100.414062 60.972656-101.820312 4.164062-2.347656 9.488281-2.382813 13.683594-.097656 2.5 1.367187 61.152343 34.125 61.152343 101.921874 0 3.945313-.214843 7.9375-.640625 11.871094-.96875 9.023438 10.773438 13.953125 16.53125 6.945313 2.320313-2.816407 4.558594-5.296875 6.835938-7.585938 26.964844-26.972656 60.050781-32.632812 83.050781-32.632812 17.988281 0 30.664063 3.386719 32.039063 3.769531 4.722656 1.316406 8.363281 4.914062 9.746093 9.617188.804688 2.722656 19.113281 67.386718-28.800781 115.316406-2.753906 2.757812-5.738281 5.425781-8.859375 7.941406-7.078125 5.691406-2.257813 17.484375 6.773437 16.605469 3.628907-.351563 6.96875-.527344 10.21875-.527344 66.671876 0 100.378907 58.503906 101.785157 61 2.40625 4.265625 2.441406 9.390625.089843 13.695313-1.359374 2.496093-34.101562 61.167968-101.875 61.167968-3.925781 0-7.902343-.214844-11.8125-.636718-9.019531-.96875-13.953124 10.757812-6.953124 16.527343 2.609374 2.152344 5.144531 4.453125 7.53125 6.839844 47.125 47.140625 29.625 112.378906 28.855468 115.128906-1.316406 4.722657-4.910156 8.367188-9.605468 9.75-1.414063.414063-14.335938 4.054688-32.683594 4.054688-22.695313 0-55.4375-5.703125-82.59375-32.863281-2.792969-2.792969-5.46875-5.773438-7.9375-8.847657-5.691406-7.070312-17.484375-2.253906-16.601563 6.78125.347657 3.625.519531 6.957031.519531 10.199219 0 66.660156-58.484374 100.414062-60.972656 101.820312-4.164062 2.34375-9.488281 2.382813-13.6875.09375-2.5-1.363281-61.144531-34.113281-61.144531-101.914062 0-3.953125.214844-7.949219.632813-11.882812.972656-9.019532-10.769532-13.953126-16.527344-6.9375-2.316406 2.816406-4.558594 5.296874-6.84375 7.582031-26.957032 26.972656-60.039063 32.636719-83.042969 32.636719-17.988281 0-30.660156-3.386719-32.039063-3.769532-4.71875-1.320312-8.363281-4.914062-9.746093-9.613281-.804688-2.730469-19.09375-67.414063 28.800781-115.320313 2.757812-2.757812 5.742188-5.433593 8.859375-7.945312 7.089844-5.707031 2.246094-17.445312-6.773437-16.601562-3.625.351562-6.96875.523437-10.21875.523437-66.65625 0-100.378907-58.5-101.785157-60.996094-2.40625-4.269531-2.441406-9.386719-.097656-13.691406 1.367187-2.5 34.15625-61.171875 101.882813-61.171875 3.925781 0 7.902343.214844 11.816406.632812 9.019531.988282 13.941406-10.765624 6.949218-16.527343-2.605468-2.148438-5.140624-4.449219-7.535156-6.835938-18.21875-18.234375-28.929687-41.226562-31.832031-68.335937-.484375-4.601563-4.222656-8.042969-8.699219-8.335938-.519531-.03125-1.054687-.03125-1.597656.019532-4.714844.507812-8.226562 4.4375-8.347656 9.046874-28.722656 8.554688-47.5625 23.632813-48.957032 24.769532-8.652343 7.0625-13.21875 18.488281-11.816406 29.570312.214844 1.710938 3.191406 23.480469 16.101563 48.09375-22.296875 18.425782-33.546875 38.5625-34.394531 40.113282-5.453126 10.011718-5.371094 21.910156.222656 31.84375.863281 1.527343 12.328125 21.429687 34.554687 39.707031-2.847656 5.253906-5.222656 10.371093-7.171875 15.164062-7.75 18.996094-9.589844 34.128907-9.882812 36.980469-1.144532 11.339844 3.542968 22.28125 12.554687 29.269531 1.359375 1.050781 18.851563 14.339844 45.378907 22.609375-2.75 28.800782 3.53125 51.003906 4.035156 52.699219 3.214844 10.933594 11.6875 19.289063 22.671875 22.359375 2.667969.746094 17.011719 4.453125 37.066406 4.453125 4.816406 0 10.023437-.222656 15.503906-.761719 8.554688 28.667969 23.585938 47.484375 24.722657 48.878906 7.207031 8.832032 18.253906 13.25 29.566406 11.820313 1.707031-.21875 23.464844-3.1875 48.066406-16.097656 18.421875 22.308593 38.554688 33.550781 40.101562 34.390625 9.847657 5.378906 22.070313 5.289062 31.847657-.222656 1.527343-.863282 21.425781-12.332032 39.6875-34.570313 4.152343 2.257813 8.191406 4.191406 12.007812 5.84375 11.027344 4.769531 18.570313-12.355469 7.4375-17.175781-2.695312-1.164063-5.511719-2.5-8.40625-4.003906 9.527344-15.238282 17.167969-33.976563 19.222657-56.261719 17.894531 15.378906 37.257812 23.609375 55.113281 27.753906-1.015625 3.054687-2.097657 5.9375-3.191407 8.640625-6.792968 16.660156-14.714843 27.121094-15.589843 28.253906-3.003907 3.875-7.699219 5.902344-12.574219 5.394532-12.050781-1.203126-13.832031 17.40625-1.890625 18.621093 11.164063 1.128907 22.386719-3.691406 29.265625-12.554687 1.695312-2.191406 10.550781-14.078125 18.117188-32.652344 1.589843-3.898438 3.132812-8.136719 4.542968-12.664062 5.167969.503906 10.085938.703124 14.648438.703124 20.53125 0 35.222656-4.011718 37.96875-4.816406 10.933594-3.214844 19.285156-11.695312 22.351562-22.675781.472656-1.695313 6.4375-23.90625 3.621094-52.582031 28.695312-8.550782 47.535156-23.605469 48.929688-24.746094 4.242187-3.460938 7.578124-7.96875 9.648437-13.042969 2.125-5.21875 2.878906-10.929687 2.167969-16.523437-.214844-1.707032-3.1875-23.472656-16.089844-48.085938 22.296875-18.425781 33.535156-38.574218 34.378906-40.121094zm-36.339844-125.589843c-.152343 1.46875-1.660156 14.8125-8.589843 31.808593-1.453125 3.558594-3.167969 7.320313-5.183594 11.191407-15.230469-9.527344-33.964844-17.175781-56.25-19.230469 15.324219-17.828125 23.585937-37.144531 27.726563-55.191406 21.605468 7.203125 35.761718 17.957031 36.898437 18.839844 3.875 3.007812 5.890625 7.710937 5.398437 12.582031zm-157.820312-165.78125c.953125 1.167969 13.234375 16.535156 20.707031 40.089843-17.390625 4.03125-36.113281 11.859376-53.414062 26.238282-1.765625-23.445313-9.578125-42.941406-19.398438-58.636719 20.359375-10.1875 37.972657-12.59375 39.398438-12.777344 4.859375-.613281 9.613281 1.289063 12.707031 5.085938zm-228.78125-5.601563c1.503906.15625 21.070312 2.339844 43.015625 13.726563-9.542969 15.25-17.199219 34.007812-19.257813 56.316406-17.894531-15.378906-37.257812-23.609375-55.113281-27.753906 1.015625-3.050781 2.089844-5.933594 3.191407-8.632813 6.800781-16.667968 14.714843-27.125 15.589843-28.257812 3.003907-3.871094 7.707031-5.894532 12.574219-5.398438zm385.148438 394.640625c-.890626 2.179688-2.324219 4.121094-4.144532 5.605469-1.171875.957031-16.546875 13.257812-40.113281 20.726562-4.035156-17.53125-11.875-36.21875-26.195313-53.449218 23.4375-1.769532 42.929688-9.585938 58.617188-19.40625 10.183594 20.367187 12.585938 37.988281 12.773438 39.410156.300781 2.410156-.019532 4.863281-.9375 7.113281zm-398.652344 157.878907c-.957032-1.171876-13.242188-16.535157-20.710938-40.089844 17.390625-4.027344 36.121094-11.859375 53.417969-26.242188 1.769531 23.445313 9.582031 42.949219 19.402344 58.640625-20.359375 10.183594-37.976563 12.59375-39.402344 12.773438-4.855469.617187-9.609375-1.285157-12.707031-5.082031zm-157.816406-165.78125c.152343-1.464844 1.667968-14.832032 8.589843-31.8125 1.449219-3.558594 3.167969-7.324219 5.175781-11.1875 15.234376 9.527343 33.972657 17.171874 56.253907 19.230468-15.324219 17.820313-23.578125 37.136719-27.726563 55.183594-21.601562-7.199219-35.761718-17.953125-36.898437-18.835938-3.875-3-5.890625-7.707031-5.394531-12.578124zm1.445312-223.257813c.894531-2.183594 2.324219-4.125 4.152344-5.609375 1.171875-.960938 16.515625-13.246094 40.058594-20.722656 4.617187 20.113281 13.382812 38.011718 26.238281 53.449218-23.425781 1.769532-42.917969 9.585938-58.601563 19.417969-10.1875-20.375-12.597656-38-12.777344-39.425781-.304687-2.402344.019532-4.863281.929688-7.109375zm0 0" data-original="#000000" class="active-path" data-old_color="#000000" fill="#D87C32"/><path d="m176.332031 167.191406c-3.664062 3.648438-3.679687 9.574219-.035156 13.238282l43.199219 43.4375c-19.589844 21.613281-32.28125 49.585937-34.578125 80.410156l-61.316407-.160156c-11.992187 0-12.160156 18.683593-.046874 18.71875l61.265624.160156c1.925782 30.515625 14.042969 58.3125 32.972657 80.015625l-44.722657 44.507812c-8.398437 8.351563 4.613282 21.8125 13.203126 13.265625l44.761718-44.546875c21.523438 18.71875 49.015625 30.726563 79.195313 32.765625l-.171875 64.972656c-.027344 12.03125 18.691406 12.253907 18.71875.046876l.171875-65.039063c30.792969-2.164063 58.769531-14.710937 80.441406-34.15625l43.144531 43.382813c8.417969 8.464843 21.71875-4.703126 13.269532-13.199219l-43.375-43.613281c17.996093-21.292969 29.53125-48.207032 31.546874-77.699219l61.257813.164062c11.992187 0 12.164063-18.6875.050781-18.71875l-61.316406-.160156c-.605469-8.78125-2.058594-17.464844-4.34375-25.910156-3.136719-11.605469-21.203125-6.726563-18.0625 4.886719 2.667969 9.863281 4.023438 20.109374 4.023438 30.4375 0 64.082031-52.109376 116.210937-116.167969 116.210937-64.050781 0-116.164063-52.128906-116.164063-116.210937 0-64.078126 52.109375-116.207032 116.164063-116.207032 36.71875 0 71.679687 17.664063 93.523437 47.261719 7.132813 9.667969 22.199219-1.433594 15.058594-11.117187-2-2.703126-4.105469-5.316407-6.285156-7.851563l42.238281-42.03125c8.519531-8.472656-4.671875-21.753906-13.195313-13.265625l-42.214843 42.003906c-21.882813-19.214844-49.636719-31.050781-78.890625-33.308594l.148437-57.675781c.03125-12.027343-18.683593-12.253906-18.71875-.046875l-.148437 57.589844c-29.554688 1.84375-56.554688 13.246094-77.945313 31.144531l-43.425781-43.664062c-3.640625-3.664063-9.5625-3.679688-13.230469-.039063zm0 0" data-original="#000000" class="active-path" data-old_color="#000000" fill="#D87C32"/><path d="m401.429688 306.21875c-5.171876 0-9.355469 4.183594-9.355469 9.355469 0 39.691406-32.28125 71.988281-71.964844 71.988281-12.011719 0-12.03125 18.71875 0 18.71875 50 0 90.675781-40.691406 90.675781-90.707031 0-5.171875-4.183594-9.355469-9.355468-9.355469zm0 0" data-original="#000000" class="active-path" data-old_color="#000000" fill="#D87C32"/></g> </svg>
