<?xml version="1.0" encoding="iso-8859-1"?>
<!-- Generator: Adobe Illustrator 19.0.0, SVG Export Plug-In . SVG Version: 6.00 Build 0)  -->
<svg version="1.1" id="Capa_1" xmlns="http://www.w3.org/2000/svg" xmlns:xlink="http://www.w3.org/1999/xlink" x="0px" y="0px"
	 viewBox="0 0 431.595 431.595" style="enable-background:new 0 0 431.595 431.595;" xml:space="preserve">
<polyline style="fill:#469612;" points="353.186,294.197 353.186,415.797 206.786,415.797 60.786,415.797 60.786,204.997 
	6.386,204.997 206.786,15.797 305.186,105.797 "/>
<g>
	<path style="fill:#7ECE29;" d="M387.986,262.997c100-93.6-31.6-212-31.6-212h-6.4c0,0-131.6,118.4-31.6,212l34.8,31.6
		L387.986,262.997z"/>
	<path style="fill:#7ECE29;" d="M301.986,285.797c-58-62-131.2,19.6-131.2,19.6v4c0,0,73.2,81.2,131.2,19.6l19.6-21.6
		L301.986,285.797z"/>
</g>
<g>
	<path style="fill:#001B01;" d="M360.786,45.797c-1.2-1.2-2.8-1.6-4.4-1.6h-6.4c-1.6,0-3.2,0.4-4.4,1.6c-1.6,1.6-22.8,20.8-41.6,50
		l-92.8-84.8c-1.2-1.2-2.8-1.6-4.4-1.6c-2.4,0-2.4,0-104.8,96.4l-100,94.8c-2,2-2.4,4.8-1.6,7.2c0.8,2.4,3.2,4,6,4h47.6v204
		c0,3.6,2.8,6.4,6.4,6.4h292.4c3.6,0,6.4-2.8,6.4-6.4v-118.8l32.8-29.6c26.4-24.8,40-53.6,39.6-85.6
		C431.186,110.197,363.586,48.597,360.786,45.797z M67.186,409.397v-204.4c0-3.6-2.8-6.4-6.4-6.4h-38c38.4-36.4,159.6-150.8,184-174
		l90,82.4c-12.4,21.6-22.4,47.6-22.8,74.8c-0.4,32,13.2,60.8,39.6,86l32.8,29.6v112H67.186z M383.586,258.197l-24,21.6v-107.2
		c0-3.6-2.8-6.4-6.4-6.4s-6.4,2.8-6.4,6.4v107.2l-24-21.6c-23.6-22.4-35.6-48-35.6-76c0.8-60,54.8-114.8,65.2-125.2h1.2
		c10.4,10,64.8,64.8,65.2,124.8C419.186,210.197,407.186,235.797,383.586,258.197z"/>
	<path style="fill:#001B01;" d="M327.986,307.397c0-0.8,0-1.6-0.4-2.4c0-0.4-0.4-0.8-0.4-0.8c-0.4-0.4-0.4-0.8-0.8-1.2l-19.6-21.6
		c-15.6-16.8-34-25.2-54-25.2c-45.6,0-84.8,42.8-86.4,44.8c-1.2,1.2-1.6,2.8-1.6,4.4v4c0,1.6,0.4,3.2,1.6,4.4
		c1.6,2,40.8,44.8,86.4,44.8l0,0c20.4,0,38.4-8.4,54.4-25.2l19.6-21.6c0.4-0.4,0.4-0.8,0.8-1.2c0-0.4,0.4-0.4,0.4-0.8
		C327.586,308.997,327.986,308.197,327.986,307.397L327.986,307.397L327.986,307.397z M297.186,324.197c-13.2,14-28,21.2-44.8,21.2
		c-34,0-66-29.6-74.8-38.4c8.4-8.8,40.4-38.4,74.8-38.4c16.4,0,31.6,7.2,44.8,21.2l9.6,10.8h-60.8c-3.6,0-6.4,2.8-6.4,6.4
		s2.8,6.4,6.4,6.4h60.8L297.186,324.197z"/>
</g>
<g>
</g>
<g>
</g>
<g>
</g>
<g>
</g>
<g>
</g>
<g>
</g>
<g>
</g>
<g>
</g>
<g>
</g>
<g>
</g>
<g>
</g>
<g>
</g>
<g>
</g>
<g>
</g>
<g>
</g>
</svg>
