<svg id="Capa_1" enable-background="new 0 0 512 512" height="512" viewBox="0 0 512 512" width="512" xmlns="http://www.w3.org/2000/svg"><path d="m256 438.883c-1.857 0-3.713-.345-5.472-1.034-43.417-17.012-80.481-46.32-107.187-84.756-27.341-39.351-41.793-85.566-41.793-133.651s14.452-94.3 41.793-133.651c26.706-38.436 63.77-67.744 107.187-84.756 3.519-1.379 7.427-1.379 10.945 0 43.417 17.012 80.481 46.321 107.187 84.756 27.342 39.351 41.793 85.566 41.793 133.651s-14.452 94.3-41.793 133.651c-26.706 38.436-63.771 67.744-107.188 84.756-1.759.689-3.615 1.034-5.472 1.034z" fill="#fdbf00"/><path d="m368.659 85.791c-26.705-38.436-63.77-67.744-107.186-84.756-1.76-.69-3.617-1.035-5.473-1.035v438.883c1.857 0 3.713-.345 5.472-1.034 43.417-17.012 80.481-46.32 107.187-84.756 27.341-39.351 41.793-85.566 41.793-133.651s-14.451-94.3-41.793-133.651z" fill="#ff9100"/><path d="m333.596 164.511c-5.857-5.858-15.355-5.858-21.213 0l-41.894 41.894v-42.405c0-8.284-6.716-15-15-15s-15 6.716-15 15v119.787l-37.394-37.394c-5.857-5.858-15.355-5.858-21.213 0s-5.858 15.355 0 21.213l58.606 58.606v170.788c0 8.284 6.716 15 15 15s15-6.716 15-15v-248.778c.989-.606 63.106-62.499 63.106-62.499 5.86-5.857 5.86-15.354.002-21.212z" fill="#803602"/><path d="m333.596 164.511c-5.857-5.858-15.355-5.858-21.213 0l-41.894 41.894v-42.405c0-8.112-6.444-14.703-14.49-14.974v362.948c8.046-.271 14.49-6.862 14.49-14.974v-248.778c.989-.606 63.106-62.499 63.106-62.499 5.859-5.857 5.859-15.354.001-21.212z" fill="#6f2e01"/></svg>