<svg id="Capa_1" enable-background="new 0 0 511.876 511.876" height="512" viewBox="0 0 511.876 511.876" width="512" xmlns="http://www.w3.org/2000/svg"><path d="m412.964 449.829h-314.001c-39.149 0-71-31.851-71-71v-4c0-8.284 6.716-15 15-15h13.924l-41.837-41.906c-15.617-15.642-19.448-38.575-9.761-58.426 8.731-17.888 8.078-38.875-1.747-56.14-4.014-7.056-2.886-15.694 2.805-21.497 5.69-5.804 14.305-7.1 21.437-3.223 17.339 9.426 38.972 10.129 56.457 1.832 19.74-9.366 42.477-5.437 57.928 10.014l23.693 23.693v-111.74c0-22.105 13.507-41.036 34.412-48.227 18.822-6.476 33.201-21.777 38.461-40.933 2.152-7.834 9.058-13.149 17.184-13.229 8.085-.062 15.135 5.102 17.437 12.891 5.596 18.926 20.396 34.718 38.624 41.214 20.582 7.335 33.881 26.193 33.881 48.042v112.135l23.848-23.848c15.449-15.451 38.188-19.38 57.928-10.014 17.484 8.297 39.115 7.594 56.455-1.832 7.131-3.876 15.747-2.58 21.439 3.224 5.691 5.804 6.818 14.442 2.803 21.496-9.824 17.265-10.478 38.252-1.747 56.14 9.686 19.846 5.856 42.778-9.758 58.424l-41.823 41.907h13.958c8.284 0 15 6.716 15 15v4c0 39.153-31.85 71.003-71 71.003zm-67.093-235.35s0 0 0 0z" fill="#ec5569"/><path d="m506.588 259.498c-8.73-17.888-8.077-38.875 1.747-56.14 4.015-7.054 2.888-15.692-2.803-21.496-5.692-5.804-14.309-7.1-21.439-3.224-17.339 9.426-38.971 10.128-56.455 1.832-19.741-9.367-42.479-5.438-57.928 10.014l-23.848 23.848v-112.136c0-21.849-13.299-40.707-33.881-48.042-18.229-6.496-33.028-22.288-38.624-41.214-2.301-7.783-9.341-12.944-17.417-12.89v449.781h157.026c39.149 0 71-31.851 71-71v-4c0-8.284-6.716-15-15-15h-13.958l41.823-41.907c15.613-15.648 19.443-38.581 9.757-58.426z" fill="#d20041"/><path d="m370.501 300.329c-4.142-7.174-13.316-9.633-20.49-5.49l-79.047 45.638v-122.539c0-8.284-6.716-15-15-15s-15 6.716-15 15v125.715l-84.548-48.814c-7.175-4.143-16.349-1.685-20.49 5.49-4.142 7.174-1.684 16.348 5.49 20.49l99.047 57.185c.165.095.333.179.5.267v118.557c0 8.284 6.716 15 15 15s15-6.716 15-15v-121.71l94.047-54.298c7.176-4.143 9.634-13.317 5.491-20.491z" fill="#803602"/><path d="m370.501 300.329c-4.142-7.174-13.316-9.633-20.49-5.49l-79.047 45.638v-122.539c0-8.284-6.716-15-15-15-.009 0-.017.001-.025.001v308.889c.009 0 .017.001.025.001 8.284 0 15-6.716 15-15v-121.711l94.047-54.298c7.175-4.143 9.633-13.317 5.49-20.491z" fill="#6f2e01"/></svg>