<?xml version="1.0"?>
<svg xmlns="http://www.w3.org/2000/svg" height="512px" viewBox="-21 -21 682 682.66568" width="512px" class=""><g><path d="m612.542969 180.53125c18.175781-18.003906 27.78125-40.09375 27.78125-63.882812 0-27.949219-13.144531-56.367188-37.011719-80.007813-21.054688-20.859375-46.480469-33.707031-71.582031-36.183594-43.90625-4.320312-83.371094 25.398438-98.53125 65.664063-71.9375-28.410156-153.804688-28.410156-225.738281 0-5.398438-14.335938-13.867188-27.488282-25.113282-38.632813-20.8125-20.613281-46.496094-29.929687-74.269531-26.941406-11.96875 1.289063-10 19.929687 2.003906 18.640625 21.988281-2.363281 42.402344 5.113281 59.074219 21.621094 9.507812 9.421875 16.625 20.574218 21.070312 32.734375-7.160156 3.347656-14.199218 6.980469-21.109374 10.886719-10.933594-14.140626-27.953126-23.261719-47.0625-23.261719-32.910157 0-59.6875 27.023437-59.6875 60.242187 0 15.542969 5.859374 29.722656 15.46875 40.421875-5.496094 6.742188-10.707032 13.683594-15.628907 20.804688-7.507812-4.023438-14.566406-9.152344-20.898437-15.425781-14.539063-14.402344-22.226563-31.890626-22.226563-50.566407 0-22.910156 11.171875-46.589843 31.460938-66.683593 4.121093-4.082032 8.472656-7.855469 12.929687-11.214844 9.648438-7.273438-1.664062-22.222656-11.28125-14.976563-5.128906 3.867188-10.125 8.191407-14.84375 12.871094-23.871094 23.640625-37.015625 52.054687-37.015625 80.003906 0 23.792969 9.605469 45.882813 27.777344 63.886719 7.257813 7.183594 15.300781 13.117188 23.839844 17.847656-31.914063 52.289063-49.007813 112.992188-49.007813 176.417969 0 44.257813 8.457032 84.21875 25.136719 118.769531 15.785156 32.695313 38.9375 60.640625 68.828125 83.0625 55.257812 41.457032 132.519531 63.371094 223.421875 63.371094 54.261719 0 103.679687-7.769531 146.878906-23.09375 11.359375-4.03125 5.226563-21.75-6.269531-17.667969-41.175781 14.601563-88.484375 22.011719-140.609375 22.011719-86.816406 0-160.179687-20.617188-212.171875-59.621094-27.46875-20.601562-48.722656-46.246094-63.195312-76.210937-15.4375-31.992188-23.269532-69.207031-23.269532-110.621094 0-83.230469 31.113282-161.460937 87.601563-220.28125 56.390625-58.714844 131.335937-91.050781 211.035156-91.050781 79.695313 0 154.644531 32.335937 211.035156 91.050781 56.488281 58.820313 87.601563 137.050781 87.601563 220.28125 0 46.894531-10.015625 88.273437-29.765625 122.988281-18.40625 32.351563-45.273438 58.992188-79.851563 79.179688-10.386718 6.066406-1.101562 22.359375 9.453125 16.191406 77.792969-45.421875 118.910157-120.929688 118.910157-218.359375 0-63.429687-17.089844-124.132813-49.003907-176.417969 8.539063-4.730468 16.582031-10.664062 23.835938-17.847656zm-67.660157-39c-17.488281-18.210938-36.675781-34.015625-57.171874-47.304688 7.507812-8.753906 18.570312-14.304687 30.886718-14.304687 22.574219 0 40.9375 18.613281 40.9375 41.492187 0 9.855469-3.410156 18.917969-9.101562 26.042969-1.820313-1.992187-3.671875-3.972656-5.550782-5.925781zm33.402344-20.117188c0-33.214843-26.777344-60.242187-59.6875-60.242187-19.101562 0-36.125 9.117187-47.058594 23.257813-6.910156-3.90625-13.949218-7.535157-21.109374-10.886719 10.972656-30.03125 39.039062-54.785157 71.996093-54.785157 24.65625 0 49.109375 12.792969 67.6875 31.203126 20.289063 20.09375 31.460938 43.777343 31.460938 66.683593 0 28.378907-18.765625 52.949219-43.125 65.992188-4.921875-7.121094-10.132813-14.0625-15.625-20.804688 9.601562-10.699219 15.460937-24.878906 15.460937-40.417969zm-488.070312 26.042969c-5.683594-7.125-9.097656-16.1875-9.097656-26.042969 0-22.878906 18.367187-41.492187 40.9375-41.492187 12.320312 0 23.378906 5.550781 30.890624 14.304687-20.5 13.28125-39.683593 29.09375-57.179687 47.304688-1.875 1.953125-3.722656 3.933594-5.550781 5.925781zm0 0" data-original="#000000" class="active-path" data-old_color="#000000" fill="#D87C32"/><path d="m377.054688 521.621094c-11.53125 11.425781-26.0625 18.097656-41.101563 20.050781v-29.4375c3.8125-1.289063 7.390625-3.398437 10.410156-6.386719l26.058594-25.808594c13.039063-12.917968 9.3125-35.242187-6.957031-43.488281-24.308594-12.320312-53.363282-12.382812-77.730469-.171875-16.46875 8.257813-20.054687 30.964844-6.695313 43.800782l27.042969 25.964843c2.691407 2.585938 5.804688 4.5 9.121094 5.757813v29.769531c-15.039063-1.953125-29.570313-8.632813-41.105469-20.050781-8.554687-8.472656-21.757812 4.832031-13.195312 13.320312 17.558594 17.386719 40.613281 26.082032 63.675781 26.082032 23.054687 0 46.117187-8.695313 63.675781-26.082032 8.550782-8.472656-4.632812-21.808594-13.199218-13.320312zm-83.027344-54.96875c-4.101563-3.9375-2.972656-10.960938 2.109375-13.507813 9.492187-4.757812 19.894531-7.136719 30.289062-7.136719 10.503907 0 21 2.421876 30.5625 7.273438 4.988281 2.527344 6.285157 9.425781 2.234375 13.4375l-26.054687 25.808594c-3.308594 3.28125-8.738281 3.320312-12.101563.09375zm0 0" data-original="#000000" class="active-path" data-old_color="#000000" fill="#D87C32"/><path d="m307.128906 332.386719c1.265625-23.84375-7.777344-47.191407-24.8125-64.0625-17.277344-17.113281-41.152344-26.035157-65.523437-24.488281-24.328125 1.550781-46.839844 13.398437-61.761719 32.511718-.085938.101563-.164062.210938-.234375.3125l-69.804687 97.484375c-20.738282 26.71875-18.253907 64.785157 5.8125 88.628907 13.195312 13.066406 30.519531 19.710937 47.921874 19.710937 15.003907 0 30.0625-4.941406 42.578126-14.953125 9.398437-7.519531-2.304688-22.171875-11.714844-14.636719-19.59375 15.671875-47.789063 14.1875-65.589844-3.441406-17.367188-17.203125-19.132812-44.683594-4.105469-63.925781.078125-.105469.15625-.207032.234375-.3125l69.792969-97.476563c11.632813-14.804687 29.140625-23.984375 48.0625-25.191406 19.027344-1.214844 37.664063 5.753906 51.136719 19.097656 13.238281 13.109375 20.265625 31.246094 19.28125 49.75-.980469 18.535157-9.910156 35.859375-24.425782 47.476563l-54.429687 42.691406c-9.472656 7.425781 2.085937 22.195312 11.566406 14.75l54.503907-42.746094c18.761718-15.007812 30.246093-37.308594 31.511718-61.179687zm0 0" data-original="#000000" class="active-path" data-old_color="#000000" fill="#D87C32"/><path d="m222.015625 302.941406c14.855469 0 26.941406 12.085938 26.941406 26.945313 0 12.035156 18.75 12.050781 18.75 0 0-25.195313-20.496093-45.695313-45.691406-45.695313-25.1875 0-45.6875 20.5-45.6875 45.695313 0 12.035156 18.75 12.050781 18.75 0 0-14.859375 12.085937-26.945313 26.9375-26.945313zm0 0" data-original="#000000" class="active-path" data-old_color="#000000" fill="#D87C32"/><path d="m555.664062 374.144531-12.246093-17.101562c-7-9.789063-22.261719 1.113281-15.242188 10.914062l12.351563 17.257813c.078125.101562.15625.207031.234375.3125 15.023437 19.238281 13.257812 46.71875-4.105469 63.925781-17.804688 17.628906-46 19.113281-65.660156 3.382813l-94.242188-73.910157c-14.589844-11.671875-23.519531-28.996093-24.503906-47.535156-.980469-18.5 6.050781-36.636719 19.289062-49.75 13.472657-13.34375 32.125-20.3125 51.132813-19.09375 18.925781 1.207031 36.429687 10.386719 48.0625 25.191406l28.800781 40.222657c7.007813 9.792968 22.261719-1.113282 15.246094-10.910157l-28.921875-40.390625c-.074219-.101562-.152344-.210937-.234375-.3125-14.921875-19.113281-37.4375-30.960937-61.761719-32.511718-24.355469-1.554688-48.253906 7.375-65.523437 24.488281-17.03125 16.871093-26.078125 40.21875-24.8125 64.0625 1.261718 23.871093 12.746094 46.171875 31.582031 61.238281l94.242187 73.90625c12.515626 10.015625 27.574219 14.953125 42.578126 14.953125 17.398437-.003906 34.730468-6.644531 47.917968-19.710937 24.070313-23.84375 26.554688-61.910157 5.816406-88.628907zm0 0" data-original="#000000" class="active-path" data-old_color="#000000" fill="#D87C32"/><path d="m372.949219 329.886719c0 12.035156 18.75 12.050781 18.75 0 0-14.859375 12.085937-26.945313 26.9375-26.945313 14.855469 0 26.941406 12.085938 26.941406 26.945313 0 12.035156 18.75 12.050781 18.75 0 0-25.195313-20.496094-45.695313-45.691406-45.695313-25.195313 0-45.6875 20.5-45.6875 45.695313zm0 0" data-original="#000000" class="active-path" data-old_color="#000000" fill="#D87C32"/></g> </svg>
