<svg height="512pt" viewBox="0 0 512 512.00029" width="512pt" xmlns="http://www.w3.org/2000/svg"><path d="m484.492188 139.097656c-31.160157 30.867188-81.675782 30.867188-112.835938 0-31.15625-30.867187-31.15625-80.910156 0-111.777344 31.160156-30.863281 74.289062-23.546874 105.449219 7.320313 31.15625 30.867187 38.542969 73.589844 7.386719 104.457031zm0 0" fill="#9e9e9e"/><path d="m454.863281 97.132812c0-22.476562-18.019531-40.695312-40.25-40.695312-22.226562 0-40.25 18.21875-40.25 40.695312 0 22.472657 18.023438 40.695313 40.25 40.695313 22.230469 0 40.25-18.222656 40.25-40.695313zm0 0" fill="#d9d9d9"/><path d="m27.5 139.097656c31.160156 30.867188 81.675781 30.867188 112.835938 0 31.15625-30.867187 31.15625-80.910156 0-111.777344-31.160157-30.863281-74.289063-23.546874-105.449219 7.320313-31.15625 30.867187-38.542969 73.589844-7.386719 104.457031zm0 0" fill="#9e9e9e"/><path d="m137.628906 97.132812c0-22.476562-18.019531-40.695312-40.25-40.695312-22.230468 0-40.25 18.21875-40.25 40.695312 0 22.472657 18.019532 40.695313 40.25 40.695313 22.230469 0 40.25-18.222656 40.25-40.695313zm0 0" fill="#d9d9d9"/><path d="m502.40625 299.457031c0 141.695313-110.320312 204.660157-246.410156 204.660157-136.085938 0-246.410156-62.964844-246.410156-204.660157 0-141.699219 110.320312-256.566406 246.410156-256.566406 136.085937 0 246.410156 114.867187 246.410156 256.566406zm0 0" fill="#f0f0f0"/><path d="m255.996094 42.890625c-7.417969 0-14.75.363281-22 1.03125 125.777344 11.589844 224.410156 121.558594 224.410156 255.53125 0 133.976563-98.632812 197.554687-224.410156 204.089844 7.25.375 14.582031.574219 22 .574219 136.085937 0 246.410156-62.964844 246.410156-204.664063 0-141.695313-110.320312-256.5625-246.410156-256.5625zm0 0" fill="#e8e8e8"/><path d="m233.28125 355.808594c17.386719-8.710938 38.078125-8.671875 55.433594.125 8.707031 4.414062 10.59375 15.917968 3.679687 22.769531l-20.847656 20.648437c-5.546875 5.496094-14.519531 5.566407-20.152344.15625l-21.632812-20.773437c-7.085938-6.808594-5.289063-18.507813 3.519531-22.925781zm0 0" fill="#fd646f"/><path d="m220.308594 219.988281c-25.777344-25.539062-68.335938-22.859375-90.640625 5.707031l-55.929688 78.109376c-14.398437 18.4375-12.71875 44.601562 3.917969 61.085937 16.902344 16.746094 43.835938 18.160156 62.433594 3.28125l75.453125-59.171875c27.96875-22.378906 30.1875-63.832031 4.765625-89.011719zm0 0" fill="#9e9e9e"/><path d="m291.683594 219.988281c25.777344-25.539062 68.335937-22.859375 90.640625 5.707031l55.929687 78.109376c14.398438 18.4375 12.71875 44.601562-3.917968 61.085937-16.90625 16.746094-43.835938 18.160156-62.433594 3.28125l-75.453125-59.171875c-27.964844-22.378906-30.1875-63.832031-4.765625-89.011719zm0 0" fill="#9e9e9e"/><path d="m489.769531 144.425781c14.539063-14.402343 22.222657-32.074219 22.222657-51.105469 0-22.359374-10.515626-45.09375-29.609376-64.007812-16.84375-16.6875-37.183593-26.964844-57.265624-28.945312-35.125-3.457032-66.695313 20.316406-78.824219 52.53125-57.550781-22.730469-123.042969-22.730469-180.589844 0-4.320313-11.46875-11.09375-21.992188-20.089844-30.90625-16.652343-16.492188-37.199219-23.945313-59.417969-21.554688-9.574218 1.03125-8 15.945312 1.605469 14.914062 17.589844-1.890624 33.921875 4.089844 47.257813 17.296876 7.605468 7.535156 13.300781 16.457031 16.855468 26.1875-5.726562 2.675781-11.359374 5.582031-16.886718 8.707031-8.746094-11.3125-22.363282-18.609375-37.648438-18.609375-26.328125 0-47.75 21.621094-47.75 48.195312 0 12.433594 4.6875 23.777344 12.375 32.335938-4.398437 5.394531-8.566406 10.949218-12.503906 16.644531-6.007812-3.21875-11.652344-7.320313-16.71875-12.339844-11.632812-11.523437-17.78125-25.511719-17.78125-40.453125 0-18.328125 8.9375-37.273437 25.167969-53.347656 3.296875-3.265625 6.777343-6.285156 10.34375-8.972656 7.71875-5.816406-1.332031-17.777344-9.023438-11.980469-4.105469 3.09375-8.101562 6.554687-11.875 10.296875-19.097656 18.914062-29.613281 41.644531-29.613281 64.003906 0 19.035156 7.683594 36.707032 22.222656 51.109375 5.804688 5.746094 12.238282 10.492188 19.070313 14.277344-25.53125 41.832031-39.207031 90.394531-39.207031 141.136719 0 35.40625 6.765624 67.375 20.109374 95.015625 12.628907 26.15625 31.152344 48.511719 55.0625 66.449219 44.207032 33.164062 106.015626 50.695312 178.738282 50.695312 43.410156 0 82.945312-6.214844 117.503906-18.472656 9.085938-3.226563 4.179688-17.402344-5.015625-14.136719-32.941406 11.683594-70.789063 17.609375-112.488281 17.609375-69.453125 0-128.144532-16.492188-169.738282-47.695312-21.972656-16.480469-38.976562-36.996094-50.554687-60.96875-12.351563-25.59375-18.617187-55.367188-18.617187-88.496094 0-66.585938 24.890624-129.171875 70.082031-176.226563 45.113281-46.972656 105.070312-72.839843 168.828125-72.839843 63.757812 0 123.714844 25.867187 168.828125 72.839843 45.191406 47.054688 70.082031 109.640625 70.082031 176.226563 0 37.515625-8.011719 70.617187-23.8125 98.390625-14.726562 25.878906-36.21875 47.191406-63.882812 63.34375-8.308594 4.851562-.878907 17.886719 7.5625 12.953125 62.234374-36.339844 95.128906-96.746094 95.128906-174.6875 0-50.746094-13.671875-99.308594-39.203125-141.136719 6.832031-3.785156 13.265625-8.53125 19.070312-14.277344zm-54.128906-31.199219c-13.992187-14.570312-29.339844-27.214843-45.738281-37.84375 6.007812-7.003906 14.855468-11.445312 24.710937-11.445312 18.058594 0 32.75 14.890625 32.75 33.195312 0 7.882813-2.730469 15.132813-7.28125 20.832032-1.457031-1.59375-2.9375-3.175782-4.441406-4.738282zm26.722656-16.09375c0-26.574218-21.421875-48.195312-47.75-48.195312-15.28125 0-28.902343 7.292969-37.648437 18.605469-5.527344-3.125-11.160156-6.027344-16.886719-8.707031 8.777344-24.027344 31.230469-43.828126 57.597656-43.828126 19.722657 0 39.285157 10.234376 54.148438 24.960938 16.230469 16.074219 25.167969 35.023438 25.167969 53.347656 0 22.703125-15.011719 42.359375-34.5 52.792969-3.9375-5.695313-8.105469-11.25-12.5-16.644531 7.683593-8.558594 12.371093-19.902344 12.371093-32.332032zm-390.457031 20.832032c-4.546875-5.699219-7.277344-12.949219-7.277344-20.832032 0-18.304687 14.691406-33.195312 32.75-33.195312 9.855469 0 18.703125 4.441406 24.710938 11.445312-16.398438 10.625-31.746094 23.273438-45.742188 37.84375-1.5 1.5625-2.980468 3.144532-4.441406 4.738282zm0 0"/><path d="m301.378906 417.296875c-9.226562 9.140625-20.851562 14.480469-32.882812 16.042969v-23.550782c3.050781-1.03125 5.914062-2.71875 8.328125-5.109374l20.847656-20.648438c10.429687-10.332031 7.449219-28.191406-5.566406-34.789062-19.445313-9.855469-42.691407-9.90625-62.183594-.136719-13.175781 6.605469-16.042969 24.769531-5.355469 35.039062l21.632813 20.773438c2.152343 2.066406 4.644531 3.597656 7.296875 4.605469v23.816406c-12.03125-1.5625-23.65625-6.90625-32.882813-16.042969-6.84375-6.777344-17.40625 3.867187-10.558593 10.65625 14.046874 13.910156 32.492187 20.867187 50.941406 20.867187 18.445312 0 36.894531-6.957031 50.941406-20.867187 6.839844-6.777344-3.707031-17.445313-10.558594-10.65625zm-66.421875-43.972656c-3.28125-3.152344-2.378906-8.769531 1.6875-10.808594 7.59375-3.804687 15.914063-5.707031 24.230469-5.707031 8.402344 0 16.800781 1.9375 24.449219 5.816406 3.992187 2.023438 5.027343 7.542969 1.789062 10.75l-20.84375 20.648438c-2.648437 2.625-6.992187 2.65625-9.683593.074218zm0 0"/><path d="m245.4375 265.910156c1.011719-19.074218-6.222656-37.753906-19.851562-51.25-13.820313-13.691406-32.921876-20.828125-52.417969-19.589844-19.460938 1.238282-37.472657 10.71875-49.410157 26.007813-.066406.082031-.128906.167969-.1875.25l-55.84375 77.988281c-16.589843 21.375-14.601562 51.828125 4.652344 70.902344 10.554688 10.453125 24.414063 15.769531 38.335938 15.769531 12.003906 0 24.050781-3.953125 34.0625-11.960937 7.519531-6.015625-1.84375-17.738282-9.371094-11.710938-15.675781 12.539063-38.230469 11.351563-52.472656-2.753906-13.894532-13.761719-15.304688-35.746094-3.285156-51.140625.0625-.082031.125-.164063.1875-.25l55.835937-77.980469c9.304687-11.84375 23.3125-19.1875 38.449219-20.152344 15.222656-.972656 30.132812 4.601563 40.910156 15.277344 10.589844 10.488282 16.210938 24.996094 15.425781 39.800782-.785156 14.828124-7.929687 28.6875-19.542969 37.980468l-43.542968 34.152344c-7.578125 5.941406 1.667968 17.757812 9.253906 11.800781l43.601562-34.195312c15.011719-12.007813 24.199219-29.847657 25.210938-48.945313zm0 0"/><path d="m177.347656 242.355469c11.882813 0 21.550782 9.667969 21.550782 21.554687 0 9.628906 15 9.640625 15 0 0-20.15625-16.394532-36.554687-36.550782-36.554687-20.152344 0-36.550781 16.398437-36.550781 36.554687 0 9.628906 15 9.640625 15 0 0-11.886718 9.667969-21.554687 21.550781-21.554687zm0 0"/><path d="m444.265625 299.316406-9.796875-13.679687c-5.601562-7.832031-17.808594.890625-12.195312 8.730469l9.882812 13.804687c.0625.082031.125.167969.1875.25 12.019531 15.390625 10.605469 37.375-3.285156 51.140625-14.242188 14.105469-36.800782 15.292969-52.527344 2.707031l-75.394531-59.128906c-11.671875-9.335937-18.816407-23.195313-19.601563-38.027344-.785156-14.800781 4.839844-29.308593 15.429688-39.800781 10.777344-10.675781 25.699218-16.25 40.90625-15.273438 15.140625.964844 29.144531 8.308594 38.449218 20.152344l23.042969 32.179688c5.605469 7.832031 17.808594-.890625 12.195313-8.730469l-23.136719-32.3125c-.058594-.082031-.121094-.167969-.1875-.25-11.9375-15.289063-29.949219-24.769531-49.410156-26.007813-19.484375-1.246093-38.601563 5.898438-52.417969 19.589844-13.625 13.496094-20.863281 32.175782-19.851562 51.25 1.011718 19.097656 10.199218 36.9375 25.265624 48.992188l75.394532 59.125c10.011718 8.011718 22.058594 11.960937 34.0625 11.960937 13.917968-.003906 27.785156-5.316406 38.335937-15.769531 19.253907-19.074219 21.242188-49.527344 4.652344-70.902344zm0 0"/><path d="m298.09375 263.910156c0 9.628906 15 9.640625 15 0 0-11.886718 9.667969-21.554687 21.550781-21.554687 11.882813 0 21.550781 9.667969 21.550781 21.554687 0 9.628906 15 9.640625 15 0 0-20.15625-16.394531-36.554687-36.550781-36.554687s-36.550781 16.398437-36.550781 36.554687zm0 0"/></svg>