<svg id="Capa_1" enable-background="new 0 0 511.5 511.5" height="512" viewBox="0 0 511.5 511.5" width="512" xmlns="http://www.w3.org/2000/svg"><path d="m285.683 367h-57.516c-60.336 0-106.896-12.28-138.384-36.5-27.734-21.332-43.151-51.583-44.583-87.482-1.36-34.081 10.212-71.838 31.748-103.59 18.816-27.741 41.822-46.202 64.533-52.177 14.496-51.139 61.479-87.251 115.444-87.251 53.938 0 100.901 36.08 115.422 87.177 23.195 5.829 46.089 23.876 64.163 50.974 20.28 30.404 31.137 67.27 29.785 101.143-1.459 36.576-16.699 67.581-44.074 89.662-31.296 25.244-77.235 38.044-136.538 38.044z" fill="#fdbf00"/><path d="m436.51 138.151c-18.074-27.098-40.968-45.146-64.163-50.974-14.521-51.097-61.485-87.177-115.422-87.177v367h28.758c59.304 0 105.242-12.8 136.538-38.044 27.375-22.081 42.615-53.085 44.074-89.662 1.351-33.873-9.505-70.738-29.785-101.143z" fill="#ff9100"/><path d="m356.531 210.106c5.858-5.858 5.858-15.355 0-21.213-5.857-5.858-15.355-5.858-21.213 0l-49.031 49.031-14.481-114.31c-.949-7.496-7.325-13.115-14.881-13.115s-13.932 5.619-14.881 13.115l-7.904 62.388-42.859-42.859c-5.857-5.858-15.355-5.858-21.213 0s-5.858 15.355 0 21.213l59.302 59.301-34.326 270.957c-.541 4.273.78 8.572 3.628 11.803s6.946 5.082 11.253 5.082h94c4.307 0 8.405-1.851 11.253-5.082s4.169-7.53 3.628-11.803l-27.754-219.074c.159-.146.325-.279.479-.433z" fill="#803602"/><path d="m356.531 210.106c5.858-5.858 5.858-15.355 0-21.213-5.857-5.858-15.355-5.858-21.213 0l-49.031 49.031-14.481-114.31c-.949-7.496-7.325-13.115-14.881-13.115v401h47c4.307 0 8.405-1.851 11.253-5.082s4.169-7.53 3.628-11.803l-27.754-219.074c.159-.146.325-.279.479-.433z" fill="#6f2e01"/></svg>