<svg id="Layer_1" enable-background="new 0 0 512 512" height="512" viewBox="0 0 512 512" width="512" xmlns="http://www.w3.org/2000/svg"><path d="m315.963 144.5c-4.143 0-7.5 3.358-7.5 7.5v91.965c0 4.142 3.357 7.5 7.5 7.5s7.5-3.358 7.5-7.5v-91.965c0-4.142-3.358-7.5-7.5-7.5z" fill="#a35418"/><circle cx="315.963" cy="374.986" fill="#ff9800" r="137.014"/><path d="m315.963 237.972c-5.224 0-10.38.293-15.453.862 68.396 7.677 121.561 65.705 121.561 136.152s-53.165 128.475-121.561 136.152c5.072.569 10.228.862 15.453.862 75.671 0 137.014-61.343 137.014-137.014s-61.343-137.014-137.014-137.014z" fill="#fb8c00"/><ellipse cx="108.913" cy="49.964" fill="#4caf50" rx="42.228" ry="56.647" transform="matrix(.707 -.707 .707 .707 -3.43 91.647)"/><path d="m138.772 20.104c-17.835-17.835-41.636-24.258-58.833-17.436 9.757 3.14 19.507 9.016 27.928 17.436 22.122 22.122 26.687 53.424 10.196 69.916-3.196 3.196-6.948 5.601-11.082 7.24 15.878 5.11 31.774 2.974 41.988-7.24 16.49-16.492 11.926-47.794-10.197-69.916z" fill="#43a047"/><ellipse cx="49.964" cy="247.243" fill="#4caf50" rx="56.647" ry="42.228" transform="matrix(.707 -.707 .707 .707 -160.194 107.746)"/><path d="m90.02 207.188c-10.214-10.214-26.11-12.35-41.988-7.24 4.134 1.64 7.887 4.044 11.082 7.24 16.491 16.491 11.926 47.793-10.196 69.916-8.42 8.42-18.171 14.296-27.928 17.436 17.197 6.822 40.998.399 58.833-17.436 22.123-22.123 26.688-53.425 10.197-69.916z" fill="#43a047"/><path d="m205.96 135.89-92.716-94.777c-2.896-2.959-7.644-3.015-10.606-.117-2.961 2.896-3.013 7.645-.116 10.606l92.716 94.777c2.889 2.952 7.637 3.021 10.606.117 2.961-2.896 3.012-7.645.116-10.606z" fill="#a35418"/><path d="m135.89 150.196-94.776 92.716c-2.961 2.896-3.013 7.645-.116 10.606 2.894 2.959 7.642 3.015 10.606.117l94.776-92.716c2.961-2.896 3.013-7.645.116-10.606-2.895-2.961-7.643-3.014-10.606-.117z" fill="#a35418"/><path d="m508 167.92h-504c-2.209 0-4-1.791-4-4v-35.268c0-2.209 1.791-4 4-4h504c2.209 0 4 1.791 4 4v35.268c0 2.209-1.791 4-4 4z" fill="#bf6724"/><path d="m481.095 124.652v43.268h26.905c2.209 0 4-1.791 4-4v-35.268c0-2.209-1.791-4-4-4z" fill="#a35418"/><ellipse cx="407.649" cy="136.443" fill="#8bc34a" rx="56.647" ry="42.228" transform="matrix(.707 -.707 .707 .707 22.918 328.215)"/><path d="m447.705 96.387c-10.214-10.214-26.11-12.35-41.988-7.24 4.134 1.64 7.887 4.044 11.082 7.24 16.491 16.491 11.926 47.793-10.196 69.916-8.42 8.42-18.171 14.296-27.928 17.436 17.197 6.821 40.998.399 58.833-17.436 22.123-22.123 26.688-53.425 10.197-69.916z" fill="#7cb342"/><path d="m414.018 130.833c-2.911-2.949-7.66-2.979-10.606-.069l-92.717 91.513c-2.948 2.91-2.979 7.658-.069 10.606 2.916 2.954 7.665 2.974 10.606.069l92.717-91.513c2.947-2.91 2.979-7.658.069-10.606z" fill="#a35418"/><g fill="#ffd54f"><path d="m315.963 279.405c-4.143 0-7.5 3.358-7.5 7.5v14.423c0 4.142 3.357 7.5 7.5 7.5s7.5-3.358 7.5-7.5v-14.423c0-4.142-3.358-7.5-7.5-7.5z"/><path d="m369.773 286.701-10.198-10.198c-2.93-2.929-7.678-2.929-10.607 0s-2.929 7.678 0 10.606l10.198 10.198c2.93 2.929 7.678 2.929 10.607 0 2.929-2.928 2.929-7.677 0-10.606z"/><path d="m272.351 276.503-10.198 10.198c-2.929 2.929-2.929 7.678 0 10.606 1.465 1.464 3.385 2.197 5.304 2.197s3.839-.732 5.304-2.197l10.198-10.198c2.929-2.929 2.929-7.678 0-10.606-2.931-2.929-7.679-2.929-10.608 0z"/></g></svg>